<svg width="99" height="91" viewBox="0 0 99 91" fill="none" xmlns="http://www.w3.org/2000/svg">
<g clip-path="url(#clip0_1_155)">
<path d="M60.2305 44.3003L50.5043 52.9654L9.43175 89.5513C8.35347 90.5141 6.97023 90.9955 5.58699 90.9955C4.07304 90.9955 2.5591 90.4219 1.45904 89.285C-0.708403 87.0522 -0.425219 83.5595 2.06897 81.6544L50.5043 44.8125L55.8412 40.7565L60.2305 44.3003Z" fill="url(#paint0_linear_1_155)"/>
<path d="M50.0795 53.4059L40.5058 61.9276L39.6235 53.1703L44.8624 49.186L50.0795 53.4059Z" fill="#3A81D6" fill-opacity="0.8"/>
<path d="M98.5475 30.893C98.5475 47.414 84.3011 60.8111 66.7438 60.8111C55.6778 60.8111 45.9298 55.4953 40.2334 47.4243C36.8897 42.6923 34.9401 37.0078 34.9401 30.893C34.9401 14.3721 49.1864 0.985229 66.7438 0.985229C74.6729 0.985229 81.9159 3.70971 87.4815 8.21637C94.2561 13.7063 98.5475 21.8285 98.5475 30.893Z" fill="url(#paint1_linear_1_155)"/>
<path d="M66.7438 54.1945C80.4286 54.1945 91.5223 43.7621 91.5223 30.893C91.5223 18.024 80.4286 7.59155 66.7438 7.59155C53.059 7.59155 41.9652 18.024 41.9652 30.893C41.9652 43.7621 53.059 54.1945 66.7438 54.1945Z" fill="white"/>
<path opacity="0.06" d="M98.5474 30.893C98.5474 47.414 84.3011 60.8111 66.7437 60.8111C55.6778 60.8111 45.9297 55.4952 40.2334 47.4242C76.0997 44.6793 85.5537 16.103 87.4924 8.21631C94.2561 13.7062 98.5474 21.8285 98.5474 30.893Z" fill="#1A6FB5" fill-opacity="0.5"/>
<path d="M66.7442 30.9442C69.6196 30.9442 71.9504 28.7523 71.9504 26.0483C71.9504 23.3443 69.6196 21.1525 66.7442 21.1525C63.8688 21.1525 61.538 23.3443 61.538 26.0483C61.538 28.7523 63.8579 30.9442 66.7442 30.9442ZM66.7442 33.3921C63.2698 33.3921 56.3318 35.0309 56.3318 38.288V39.5171C56.3318 40.1931 56.9199 40.7462 57.6388 40.7462H75.8715C76.5903 40.7462 77.1785 40.1931 77.1785 39.5171V38.288C77.1567 35.0412 70.2187 33.3921 66.7442 33.3921Z" fill="url(#paint2_linear_1_155)"/>
</g>
<defs>
<linearGradient id="paint0_linear_1_155" x1="6.07961" y1="85.3117" x2="54.5569" y2="38.4479" gradientUnits="userSpaceOnUse">
<stop stop-color="#67C3F3"/>
<stop offset="1" stop-color="#5A98F2"/>
</linearGradient>
<linearGradient id="paint1_linear_1_155" x1="53.5896" y1="3.09859" x2="75.3045" y2="55.0098" gradientUnits="userSpaceOnUse">
<stop stop-color="#6888C8"/>
<stop offset="1" stop-color="#5A98F2"/>
</linearGradient>
<linearGradient id="paint2_linear_1_155" x1="59.2164" y1="29.3799" x2="77.6114" y2="38.9205" gradientUnits="userSpaceOnUse">
<stop stop-color="#B0F4FF"/>
<stop offset="0.071077" stop-color="#A6F1FF"/>
<stop offset="0.2937" stop-color="#8BE8FD"/>
<stop offset="0.5209" stop-color="#78E1FD"/>
<stop offset="0.7536" stop-color="#6DDDFC"/>
<stop offset="1" stop-color="#69DCFC"/>
</linearGradient>
<clipPath id="clip0_1_155">
<rect width="98.5479" height="90" fill="white" transform="translate(0 0.985229)"/>
</clipPath>
</defs>
</svg>
