<svg width="67" height="86" viewBox="0 0 67 86" fill="none" xmlns="http://www.w3.org/2000/svg">
<path d="M66.2757 27.4658L66.0704 67.2666L66.0362 74.9649C66.002 81.0819 59.7731 86.0171 52.1068 85.9852L13.8096 85.8254C6.16043 85.7775 -0.0342054 80.7944 1.90639e-05 74.6614L0.239591 27.1624C0.256703 22.2112 4.36364 18.0267 9.97646 16.6372L9.99357 14.0818V12.7721L56.6587 12.9797L56.6416 16.8448C62.2373 18.2982 66.2929 22.4987 66.2757 27.4658Z" fill="url(#paint0_linear_1_189)"/>
<path d="M60.1325 2.75806V3.10943L60.0982 7.262L60.064 11.3347V11.8298C60.064 12.5965 59.3795 13.2194 58.5581 13.2194H58.1988L55.94 13.2034L53.4587 13.1874L51.1999 13.1714L48.7186 13.1555L46.4256 13.1235L43.9443 13.1076L41.6855 13.0916L39.1871 13.0756L36.9111 13.0596L34.4299 13.0437L32.171 13.0117L29.6898 12.9958L27.4309 12.9798L24.9326 12.9638L22.6566 12.9478L20.1925 12.9319L17.9336 12.9159L15.4524 12.8999L13.1764 12.884L10.6952 12.868L8.41923 12.852H8.05987C7.23848 12.852 6.57111 12.2132 6.57111 11.4465V11.4306V11.0792L6.63955 2.86986V2.37474C6.63955 1.60812 7.32405 0.985229 8.16255 0.985229H8.5219L13.2791 1.01717L18.0363 1.04912L20.3122 1.06509L22.7935 1.08106L25.0523 1.09703L29.7924 1.14494L32.2737 1.16092L34.5325 1.17689L37.0138 1.19286L39.2726 1.20883L41.7539 1.2248L44.0127 1.24077L46.494 1.25674L48.7528 1.27272L51.2683 1.30466L53.5271 1.32063L56.0084 1.3366L58.2843 1.35257H58.6437C59.4822 1.36854 60.1325 1.99143 60.1325 2.75806Z" fill="url(#paint1_linear_1_189)"/>
<path d="M60.1325 3.12542L60.0982 7.26202L60.064 11.3347L58.0277 11.3188L55.3239 11.3028L52.8426 11.2868H50.1218L47.6405 11.2709L44.9368 11.2549L42.4555 11.2389H39.7347L37.2534 11.2229L34.5325 11.207L32.0684 11.191H29.3475L26.8662 11.175L24.1454 11.1591L21.6641 11.1431H18.9604L16.4791 11.1271L13.7583 11.1111L11.277 11.0952H8.57324L6.57111 11.0792L6.63955 2.86987L11.3968 2.88584L16.5818 2.91779L19.0631 2.93376L21.7839 2.94973H24.2652L29.4502 2.98167L32.171 2.99764H34.6523L37.3732 3.01362L39.8373 3.02959L42.5582 3.04556H45.0395L47.7603 3.06153L50.2245 3.0775L52.9453 3.09347H55.4266L58.1474 3.10944L60.1325 3.12542Z" fill="url(#paint2_linear_1_189)"/>
<path d="M66.2256 35.8694L0.189392 35.5779L0.0509266 62.905L66.0871 63.1965L66.2256 35.8694Z" fill="#F7F9FC"/>
<path d="M66.2373 35.8693L0.201111 35.5779L0.176194 40.4971L66.2124 40.7885L66.2373 35.8693Z" fill="#FBFCF7"/>
<path d="M25.9422 46.5656L21.6812 46.5496L21.6983 42.5567L15.8288 42.5408L15.8117 46.5177L11.5508 46.5017L11.5165 51.9639L15.7775 51.9799L15.7604 55.9727L21.6299 55.9887L21.647 52.0118L25.9079 52.0278L25.9422 46.5656Z" fill="url(#paint3_linear_1_189)"/>
<path d="M54.8961 47.8912L33.7796 47.7954C33.2149 47.7954 32.7529 47.3642 32.7529 46.8371V46.3899C32.7529 45.8629 33.2149 45.4316 33.7796 45.4316L54.8961 45.5275C55.4608 45.5275 55.9229 45.9587 55.9229 46.4858V46.933C55.9229 47.46 55.4608 47.8912 54.8961 47.8912Z" fill="url(#paint4_linear_1_189)"/>
<path opacity="0.5" d="M54.879 53.7527L33.7625 53.6569C33.1978 53.6569 32.7358 53.2256 32.7358 52.6986V52.2514C32.7358 51.7243 33.1978 51.2931 33.7625 51.2931L54.879 51.3889C55.4437 51.3889 55.9058 51.8201 55.9058 52.3472V52.7944C55.9058 53.3215 55.4437 53.7527 54.879 53.7527Z" fill="url(#paint5_linear_1_189)"/>
<path opacity="0.08" d="M6.57111 2.75803V3.1094L6.60533 7.26197L6.63955 11.3187V11.8138C6.63955 12.5805 7.32404 13.2033 8.14543 13.2033H8.50479L10.7807 13.1874L13.262 13.1714L15.5208 13.1554L18.0021 13.1395L20.2609 13.1235L22.7422 13.1075L25.001 13.0915L27.4823 13.0756L29.7582 13.0596L32.2395 13.0436L34.4983 13.0277L36.9796 13.0117L39.2384 12.9957L41.7197 12.9797L43.9956 12.9638L46.4769 12.9478L48.7357 12.9318L51.217 12.9159L53.4758 12.8999L55.9571 12.8839L58.233 12.8679H58.5924C59.4138 12.8679 60.0811 12.2291 60.0811 11.4625V11.4465V11.0951C33.6085 12.1652 8.05987 1.35254 8.05987 1.35254C7.23848 1.36851 6.57111 1.9914 6.57111 2.75803Z" fill="#1A6FB5"/>
<defs>
<linearGradient id="paint0_linear_1_189" x1="1.87137e-05" y1="12.3185" x2="55.8058" y2="94.8412" gradientUnits="userSpaceOnUse">
<stop stop-color="#6CBCFC"/>
<stop offset="1" stop-color="#458DFC"/>
</linearGradient>
<linearGradient id="paint1_linear_1_189" x1="-674.925" y1="-38.9458" x2="-30.0365" y2="9.18026" gradientUnits="userSpaceOnUse">
<stop stop-color="#B0F4FF"/>
<stop offset="0.0525488" stop-color="#A9F2FF"/>
<stop offset="0.2879" stop-color="#8DE8FE"/>
<stop offset="0.5247" stop-color="#79E1FD"/>
<stop offset="0.7618" stop-color="#6DDDFC"/>
<stop offset="1" stop-color="#69DCFC"/>
</linearGradient>
<linearGradient id="paint2_linear_1_189" x1="6.5785" y1="7.09836" x2="60.1347" y2="7.09836" gradientUnits="userSpaceOnUse">
<stop stop-color="#B0F4FF"/>
<stop offset="0.0525488" stop-color="#A9F2FF"/>
<stop offset="0.2879" stop-color="#8DE8FE"/>
<stop offset="0.5247" stop-color="#79E1FD"/>
<stop offset="0.7618" stop-color="#6DDDFC"/>
<stop offset="1" stop-color="#69DCFC"/>
</linearGradient>
<linearGradient id="paint3_linear_1_189" x1="23.5478" y1="44.0806" x2="14.28" y2="55.5311" gradientUnits="userSpaceOnUse">
<stop stop-color="#6CBCFC"/>
<stop offset="1" stop-color="#458DFC"/>
</linearGradient>
<linearGradient id="paint4_linear_1_189" x1="56.1265" y1="46.6562" x2="30.95" y2="46.6562" gradientUnits="userSpaceOnUse">
<stop stop-color="#6CBCFC"/>
<stop offset="1" stop-color="#458DFC"/>
</linearGradient>
<linearGradient id="paint5_linear_1_189" x1="32.7342" y1="52.5174" x2="55.9061" y2="52.5174" gradientUnits="userSpaceOnUse">
<stop stop-color="#6888C8"/>
<stop offset="1" stop-color="#458DFC"/>
</linearGradient>
</defs>
</svg>
