<svg width="66" height="96" viewBox="0 0 66 96" fill="none" xmlns="http://www.w3.org/2000/svg">
<g clip-path="url(#clip0_1_167)">
<path d="M63.5779 0.985229H3.17507C1.93279 0.985229 0.928558 2.01345 0.928558 3.2854V93.6927C0.928558 94.9646 1.93279 95.9928 3.17507 95.9928H63.5779C64.8202 95.9928 65.8244 94.9646 65.8244 93.6927V3.2854C65.817 2.01345 64.8127 0.985229 63.5779 0.985229Z" fill="url(#paint0_linear_1_167)"/>
<path d="M59.613 5.08289H7.13249C5.92741 5.08289 4.9455 6.08826 4.9455 7.32974V82.0776C4.9455 83.319 5.92741 84.3168 7.13249 84.3168H59.613C60.8256 84.3168 61.8 83.3114 61.8 82.0776V7.32974C61.8 6.08826 60.8256 5.08289 59.613 5.08289Z" fill="white"/>
<path d="M44.1032 40.6212H22.6498C21.6678 40.6212 20.8719 39.8062 20.8719 38.8009V16.8274C20.8719 15.822 21.6678 15.0071 22.6498 15.0071H44.1032C45.0851 15.0071 45.881 15.822 45.881 16.8274V38.7933C45.881 39.7986 45.0851 40.6212 44.1032 40.6212Z" fill="url(#paint1_linear_1_167)"/>
<path d="M33.3765 93.5327C35.2006 93.5327 36.6793 92.0186 36.6793 90.151C36.6793 88.2833 35.2006 86.7693 33.3765 86.7693C31.5524 86.7693 30.0737 88.2833 30.0737 90.151C30.0737 92.0186 31.5524 93.5327 33.3765 93.5327Z" fill="white"/>
<path d="M52.0701 52.0002H14.6754C13.7307 52.0002 12.957 51.2081 12.957 50.2408C12.957 49.2736 13.7307 48.4814 14.6754 48.4814H52.0627C53.0074 48.4814 53.781 49.2736 53.781 50.2408C53.781 51.2081 53.0148 52.0002 52.0701 52.0002Z" fill="url(#paint2_linear_1_167)"/>
<path opacity="0.6" d="M45.7397 61.7493H14.0506C13.448 61.7493 12.9645 61.2466 12.9645 60.6373V60.5155C12.9645 59.8985 13.4555 59.4034 14.0506 59.4034H45.7397C46.3423 59.4034 46.8258 59.9061 46.8258 60.5155V60.6373C46.8332 61.2466 46.3423 61.7493 45.7397 61.7493Z" fill="url(#paint3_linear_1_167)"/>
<path opacity="0.3" d="M39.7068 67.9414H13.9464C13.4034 67.9414 12.957 67.4844 12.957 66.9284V66.5933C12.957 66.0373 13.4034 65.5803 13.9464 65.5803H39.6994C40.2424 65.5803 40.6888 66.0373 40.6888 66.5933V66.9284C40.6888 67.4844 40.2424 67.9414 39.7068 67.9414Z" fill="url(#paint4_linear_1_167)"/>
<path opacity="0.6" d="M42.9502 73.6767H14.0059C13.4332 73.6767 12.9645 73.1968 12.9645 72.6104V72.3971C12.9645 71.8106 13.4332 71.3308 14.0059 71.3308H42.9502C43.523 71.3308 43.9916 71.8106 43.9916 72.3971V72.6104C43.9916 73.1892 43.523 73.6767 42.9502 73.6767Z" fill="url(#paint5_linear_1_167)"/>
<path d="M33.4409 27.1061C35.589 27.1061 37.3302 25.2994 37.3302 23.0707C37.3302 20.8419 35.589 19.0353 33.4409 19.0353C31.2929 19.0353 29.5517 20.8419 29.5517 23.0707C29.5517 25.2994 31.2848 27.1061 33.4409 27.1061ZM33.4409 29.1238C30.8454 29.1238 25.6625 30.4745 25.6625 33.1591V34.1722C25.6625 34.7294 26.1018 35.1853 26.6389 35.1853H40.2593C40.7963 35.1853 41.2357 34.7294 41.2357 34.1722V33.1591C41.2194 30.483 36.0365 29.1238 33.4409 29.1238Z" fill="white"/>
</g>
<defs>
<linearGradient id="paint0_linear_1_167" x1="4.85993" y1="46.0154" x2="65.8991" y2="51.0612" gradientUnits="userSpaceOnUse">
<stop stop-color="#6CBCFC"/>
<stop offset="1" stop-color="#458DFC"/>
</linearGradient>
<linearGradient id="paint1_linear_1_167" x1="18.9325" y1="20.2775" x2="48.0933" y2="34.7891" gradientUnits="userSpaceOnUse">
<stop stop-color="#B0F4FF"/>
<stop offset="0.0856277" stop-color="#A3F0FE"/>
<stop offset="0.2972" stop-color="#8AE7FD"/>
<stop offset="0.5161" stop-color="#77E1FD"/>
<stop offset="0.7451" stop-color="#6DDDFC"/>
<stop offset="1" stop-color="#69DCFC"/>
</linearGradient>
<linearGradient id="paint2_linear_1_167" x1="53.7846" y1="50.2423" x2="12.964" y2="50.2423" gradientUnits="userSpaceOnUse">
<stop stop-color="#6CBCFC"/>
<stop offset="1" stop-color="#458DFC"/>
</linearGradient>
<linearGradient id="paint3_linear_1_167" x1="46.8311" y1="60.573" x2="12.9641" y2="60.573" gradientUnits="userSpaceOnUse">
<stop stop-color="#6CBCFC"/>
<stop offset="1" stop-color="#458DFC"/>
</linearGradient>
<linearGradient id="paint4_linear_1_167" x1="40.6895" y1="66.7651" x2="12.964" y2="66.7651" gradientUnits="userSpaceOnUse">
<stop stop-color="#6888C8"/>
<stop offset="1" stop-color="#458DFC"/>
</linearGradient>
<linearGradient id="paint5_linear_1_167" x1="43.991" y1="72.4976" x2="12.9641" y2="72.4976" gradientUnits="userSpaceOnUse">
<stop stop-color="#6CBCFC"/>
<stop offset="1" stop-color="#458DFC"/>
</linearGradient>
<clipPath id="clip0_1_167">
<rect width="64.8884" height="95" fill="white" transform="translate(0.928558 0.985229)"/>
</clipPath>
</defs>
</svg>
