<svg width="66" height="96" viewBox="0 0 66 96" fill="none" xmlns="http://www.w3.org/2000/svg">
<g clip-path="url(#clip0_1_203)">
<path d="M65.5728 91.4334C65.5728 93.9125 63.638 95.9272 61.2475 95.9272L5.3142 95.9935C3.41138 95.9935 1.79638 94.725 1.21275 92.959C1.06084 92.503 0.98089 92.0221 0.98089 91.5163L0.892944 7.8669C0.892944 5.38784 2.82774 3.37309 5.21826 3.37309L56.5784 3.31505L61.1515 3.30676C63.5421 3.30676 65.4849 5.31322 65.4849 7.79227L65.5728 91.4334Z" fill="url(#paint0_linear_1_203)"/>
<path d="M59.7763 90.9525L6.77723 91.0105C5.49003 91.0105 4.45068 89.9327 4.45068 88.5978L4.37073 10.7522C4.37073 9.41732 5.41008 8.33947 6.69728 8.33947L59.6884 8.28143C60.9756 8.28143 62.0149 9.35928 62.0149 10.6942L62.0949 88.5398C62.1029 89.8663 61.0635 90.9525 59.7763 90.9525Z" fill="white"/>
<path d="M52.333 14.6988L13.677 14.7486C12.3978 14.7486 11.3504 13.6707 11.3504 12.3441L11.3424 5.66146C11.3424 4.33487 12.3818 3.24873 13.661 3.24873L52.325 3.20728C53.6042 3.20728 54.6515 4.28512 54.6515 5.61171L54.6595 12.2944C54.6515 13.621 53.6122 14.6988 52.333 14.6988ZM13.661 4.47582C13.0374 4.47582 12.5257 5.00645 12.5257 5.65316L12.5337 12.3358C12.5337 12.9825 13.0454 13.5132 13.669 13.5132L52.333 13.4717C52.9566 13.4717 53.4683 12.9411 53.4683 12.2944L53.4603 5.61171C53.4603 4.965 52.9486 4.43437 52.325 4.43437L13.661 4.47582Z" fill="url(#paint1_linear_1_203)"/>
<path d="M51.2377 6.10087L15.1401 6.14232C14.7403 6.14232 14.4205 5.81068 14.4205 5.39612V1.77289C14.4205 1.35833 14.7403 1.02669 15.1401 1.02669L51.2297 0.985229C51.6295 0.985229 51.9493 1.31688 51.9493 1.73143V5.35467C51.9573 5.76922 51.6375 6.10087 51.2377 6.10087Z" fill="url(#paint2_linear_1_203)"/>
<path d="M15.1721 6.14231L51.2058 6.10085C51.6215 6.10085 51.9573 5.75262 51.9573 5.32149V3.54718L14.4126 3.58864V5.36294C14.4126 5.79408 14.7564 6.14231 15.1721 6.14231Z" fill="#58D6F4"/>
<path d="M27.8362 82.1971L24.7182 62.6299L22.1918 71.145L14.9642 71.1532C14.5245 71.1532 14.1727 70.7884 14.1727 70.3324C14.1727 69.8764 14.5245 69.5116 14.9642 69.5116L21.0325 69.5033L25.1979 55.483L28.316 75.0998L32.3614 61.6267L34.5121 68.0109L39.3571 55.8312L44.0662 75.1496L45.8411 69.0058L51.0378 68.9975C51.4776 68.9975 51.8294 69.3624 51.8294 69.8184C51.8294 70.2744 51.4776 70.6392 51.0378 70.6392L47.0163 70.6475L43.9383 81.3016L38.9973 61.038L34.3842 72.6208L32.4414 66.8584L27.8362 82.1971Z" fill="#58D6F4"/>
<path d="M22.4795 44.4723L12.3178 44.4806C10.6789 44.4806 9.33569 43.096 9.33569 41.3963L9.3197 26.6629C9.3197 24.9632 10.6549 23.5703 12.2939 23.5703L22.4556 23.562C24.0945 23.562 25.4377 24.9466 25.4377 26.6463L25.4537 41.3797C25.4537 43.0794 24.1185 44.464 22.4795 44.4723ZM12.2859 24.4657C11.1186 24.4657 10.1752 25.4524 10.1752 26.6629L10.1912 41.3963C10.1912 42.6068 11.1426 43.5851 12.3098 43.5851L22.4715 43.5769C23.6388 43.5769 24.5822 42.5902 24.5822 41.3797L24.5662 26.6463C24.5662 25.4358 23.6148 24.4575 22.4476 24.4575L12.2859 24.4657Z" fill="url(#paint3_linear_1_203)"/>
<path d="M17.3867 41.645C22.1918 41.6367 23.6868 38.7597 23.6868 38.7597C23.471 38.4778 23.1991 38.2291 22.8314 37.9804C21.5681 37.1264 20.5528 36.7616 20.129 36.3967C19.6973 36.0402 19.4574 35.5179 19.4574 35.5179L19.1936 35.6837C19.1936 35.6837 19.0337 35.1116 19.1217 34.241C19.1217 34.241 19.4974 34.1416 19.7773 32.8233C20.225 32.9145 20.7526 31.7371 20.5048 31.306C20.3449 31.0241 20.153 31.049 20.0171 31.1153C20.153 30.5266 20.7686 27.2682 17.3787 27.2682C13.9888 27.2682 14.6045 30.5266 14.7484 31.1153C14.6125 31.049 14.4206 31.0241 14.2607 31.306C14.0128 31.7371 14.5485 32.9145 14.9962 32.8233C15.276 34.1416 15.6598 34.2328 15.6598 34.2328C15.7557 35.095 15.5878 35.6754 15.5878 35.6754L15.324 35.5096C15.324 35.5096 15.0842 36.0236 14.6524 36.3885C14.2207 36.7533 13.2133 37.1264 11.9501 37.9804C11.5823 38.2291 11.3025 38.4778 11.0946 38.7597C11.0866 38.7763 12.5897 41.6533 17.3867 41.645Z" fill="url(#paint4_linear_1_203)"/>
<path d="M49.031 28.2632L29.4672 28.288C29.0994 28.288 28.8036 27.9813 28.8036 27.5999V27.4838C28.8036 27.1024 29.0994 26.7956 29.4672 26.7956L49.031 26.7708C49.3988 26.7708 49.6946 27.0775 49.6946 27.4589V27.575C49.6946 27.9564 49.3908 28.2632 49.031 28.2632Z" fill="url(#paint5_linear_1_203)"/>
<path d="M41.8355 32.1268L29.4672 32.1434C29.0994 32.1434 28.8036 31.8366 28.8036 31.4552V31.3391C28.8036 30.9577 29.0994 30.6509 29.4672 30.6509L41.8355 30.6343C42.2033 30.6343 42.4991 30.9411 42.4991 31.3225V31.4386C42.4991 31.82 42.2033 32.1268 41.8355 32.1268Z" fill="url(#paint6_linear_1_203)"/>
<path opacity="0.6" d="M55.7789 36.7201L29.4752 36.7532C29.1075 36.7532 28.8116 36.4465 28.8116 36.0651V35.949C28.8116 35.5676 29.1075 35.2608 29.4752 35.2608L55.7789 35.2277C56.1467 35.2277 56.4425 35.5344 56.4425 35.9158V36.0319C56.4345 36.4133 56.1387 36.7201 55.7789 36.7201Z" fill="url(#paint7_linear_1_203)"/>
<path opacity="0.6" d="M55.2112 49.6294L11.3344 49.6792C10.9587 49.6792 10.6469 49.3641 10.6469 48.9661V48.8998C10.6469 48.5101 10.9507 48.1868 11.3344 48.1868L55.2112 48.137C55.587 48.137 55.8988 48.4521 55.8988 48.8501V48.9164C55.8988 49.3144 55.587 49.6294 55.2112 49.6294Z" fill="url(#paint8_linear_1_203)"/>
<path opacity="0.6" d="M55.7789 41.2304L29.4752 41.2636C29.1075 41.2636 28.8116 40.9568 28.8116 40.5754V40.4594C28.8116 40.078 29.1075 39.7712 29.4752 39.7712L55.7789 39.738C56.1467 39.738 56.4425 40.0448 56.4425 40.4262V40.5423C56.4425 40.9237 56.1467 41.2304 55.7789 41.2304Z" fill="url(#paint9_linear_1_203)"/>
</g>
<defs>
<linearGradient id="paint0_linear_1_203" x1="-8.064" y1="35.7332" x2="75.0867" y2="61.7856" gradientUnits="userSpaceOnUse">
<stop stop-color="#6CBCFC"/>
<stop offset="0.1713" stop-color="#5EABFC"/>
<stop offset="0.4084" stop-color="#509AFC"/>
<stop offset="0.6698" stop-color="#4890FC"/>
<stop offset="1" stop-color="#458DFC"/>
</linearGradient>
<linearGradient id="paint1_linear_1_203" x1="-4.14548" y1="-20.3897" x2="55.4401" y2="7.28036" gradientUnits="userSpaceOnUse">
<stop stop-color="#CFE9FF"/>
<stop offset="1" stop-color="#A1D6FB"/>
</linearGradient>
<linearGradient id="paint2_linear_1_203" x1="14.4114" y1="3.56475" x2="51.9566" y2="3.56475" gradientUnits="userSpaceOnUse">
<stop stop-color="#B0F4FF"/>
<stop offset="1" stop-color="#69DCFC"/>
</linearGradient>
<linearGradient id="paint3_linear_1_203" x1="14.5231" y1="30.1928" x2="24.3869" y2="42.4712" gradientUnits="userSpaceOnUse">
<stop stop-color="#6CBCFC"/>
<stop offset="1" stop-color="#458DFC"/>
</linearGradient>
<linearGradient id="paint4_linear_1_203" x1="13.5002" y1="31.0146" x2="23.364" y2="43.2931" gradientUnits="userSpaceOnUse">
<stop stop-color="#B0F4FF"/>
<stop offset="0.0994384" stop-color="#A1EFFE"/>
<stop offset="0.2994" stop-color="#88E7FD"/>
<stop offset="0.5095" stop-color="#77E1FD"/>
<stop offset="0.7344" stop-color="#6CDDFC"/>
<stop offset="1" stop-color="#69DCFC"/>
</linearGradient>
<linearGradient id="paint5_linear_1_203" x1="28.8047" y1="27.5362" x2="49.6904" y2="27.5483" gradientUnits="userSpaceOnUse">
<stop stop-color="#6CBCFC"/>
<stop offset="1" stop-color="#458DFC"/>
</linearGradient>
<linearGradient id="paint6_linear_1_203" x1="28.8085" y1="31.3889" x2="42.4983" y2="31.3889" gradientUnits="userSpaceOnUse">
<stop stop-color="#6CBCFC"/>
<stop offset="1" stop-color="#458DFC"/>
</linearGradient>
<linearGradient id="paint7_linear_1_203" x1="28.8131" y1="35.995" x2="56.438" y2="35.995" gradientUnits="userSpaceOnUse">
<stop stop-color="#6CBCFC"/>
<stop offset="1" stop-color="#458DFC"/>
</linearGradient>
<linearGradient id="paint8_linear_1_203" x1="10.6465" y1="48.9124" x2="55.8965" y2="48.9124" gradientUnits="userSpaceOnUse">
<stop stop-color="#6888C8"/>
<stop offset="1" stop-color="#458DFC"/>
</linearGradient>
<linearGradient id="paint9_linear_1_203" x1="28.8176" y1="40.5043" x2="56.4425" y2="40.5043" gradientUnits="userSpaceOnUse">
<stop stop-color="#6CBCFC"/>
<stop offset="1" stop-color="#458DFC"/>
</linearGradient>
<clipPath id="clip0_1_203">
<rect width="64.6799" height="95" fill="white" transform="translate(0.892944 0.985229)"/>
</clipPath>
</defs>
</svg>
