<svg width="86" height="73" viewBox="0 0 86 73" fill="none" xmlns="http://www.w3.org/2000/svg">
<g clip-path="url(#clip0_1_230)">
<path d="M71.2238 14.996H14.2054V72.1127H71.2238V14.996Z" fill="url(#paint0_linear_1_230)"/>
<path d="M13.9695 14.996C14.0383 14.996 14.1071 15.0235 14.2054 15.0511C14.2054 34.0532 14.2054 53.0554 14.2054 72.0851C9.79143 72.4063 6.06558 71.3694 3.10652 68.7086C1.01257 66.8185 4.08664e-06 64.598 4.08664e-06 62.084C4.08664e-06 53.1839 4.08664e-06 44.2929 4.08664e-06 35.3928C4.08664e-06 31.998 -0.00982666 28.6031 -0.00982666 25.2082C-0.00982666 21.1068 2.35938 18.1248 6.7144 16.1062C8.95581 15.0786 11.443 14.9226 13.9695 14.996Z" fill="url(#paint1_linear_1_230)"/>
<path d="M61.2652 14.9868C63.8114 14.9868 64.067 14.9868 66.6033 14.9868C66.6033 34.0532 66.6033 53.0554 66.6033 72.0943C49.2914 72.0943 36.1968 72.0943 18.8259 72.0943C18.8259 53.0646 18.8259 34.0624 18.8259 15.0052C21.3622 15.0052 21.9127 15.0052 24.4982 15.0052C24.4982 14.7666 24.4982 14.5831 24.4982 14.4088C24.4982 12.3627 24.508 10.3074 24.4884 8.2613C24.4687 6.82995 24.8816 5.5821 26.081 4.60951C26.9264 3.93053 27.8996 3.58187 29.0007 3.58187C32.412 3.57269 35.8134 3.57269 39.2247 3.57269C44.956 3.57269 50.6972 3.58187 56.4285 3.57269C57.9326 3.57269 59.1811 4.03146 60.1642 5.0958C60.9506 5.94911 61.2455 6.94923 61.2455 8.06862C61.2357 10.2248 61.2455 12.381 61.2455 14.5373C61.2357 14.6565 61.2455 14.7942 61.2652 14.9868ZM30.6523 14.9868C30.8882 14.9868 31.0651 14.9868 31.2421 14.9868C33.9554 14.9868 36.6785 14.9868 39.3918 14.9868C44.4645 14.9868 49.547 14.9868 54.6196 14.996C55.0227 14.996 55.1112 14.8767 55.1112 14.5189C55.0915 12.9132 55.1112 11.3075 55.1112 9.70183C55.1112 9.57338 55.0915 9.44492 55.0718 9.30729C46.9123 9.30729 38.8019 9.30729 30.6523 9.30729C30.6523 11.1974 30.6523 13.0508 30.6523 14.9868Z" fill="white"/>
<mask id="mask0_1_230" style="mask-type:alpha" maskUnits="userSpaceOnUse" x="18" y="3" width="49" height="70">
<path d="M61.2652 14.9868C63.8114 14.9868 64.067 14.9868 66.6033 14.9868C66.6033 34.0532 66.6033 53.0554 66.6033 72.0943C49.2914 72.0943 36.1968 72.0943 18.8259 72.0943C18.8259 53.0646 18.8259 34.0624 18.8259 15.0052C21.3622 15.0052 21.9127 15.0052 24.4982 15.0052C24.4982 14.7666 24.4982 14.5831 24.4982 14.4088C24.4982 12.3627 24.508 10.3074 24.4884 8.2613C24.4687 6.82995 24.8816 5.5821 26.081 4.60951C26.9264 3.93053 27.8996 3.58187 29.0007 3.58187C32.412 3.57269 35.8134 3.57269 39.2247 3.57269C44.956 3.57269 50.6971 3.58187 56.4285 3.57269C57.9326 3.57269 59.1811 4.03146 60.1642 5.0958C60.9506 5.94911 61.2455 6.94923 61.2455 8.06862C61.2357 10.2248 61.2455 12.381 61.2455 14.5373C61.2357 14.6565 61.2455 14.7942 61.2652 14.9868ZM30.6523 14.9868C30.8882 14.9868 31.0651 14.9868 31.2421 14.9868C33.9554 14.9868 36.6785 14.9868 39.3918 14.9868C44.4645 14.9868 49.5469 14.9868 54.6196 14.996C55.0227 14.996 55.1111 14.8767 55.1111 14.5189C55.0915 12.9132 55.1111 11.3075 55.1111 9.70183C55.1111 9.57338 55.0915 9.44492 55.0718 9.30729C46.9123 9.30729 38.8019 9.30729 30.6523 9.30729C30.6523 11.1974 30.6523 13.0508 30.6523 14.9868Z" fill="#F7F9FC"/>
</mask>
<g mask="url(#mask0_1_230)">
<path d="M62.2457 0.985229H22.5V15.0052H62.2457V0.985229Z" fill="url(#paint2_linear_1_230)"/>
</g>
<path d="M85.7143 25.0614C85.7143 21.2812 83.5024 18.4643 79.5701 16.4182C77.1517 15.1612 74.4089 14.9226 71.5973 14.9777C71.1648 14.9869 71.2238 15.1979 71.2238 15.4181C71.2238 22.0244 71.2238 28.6215 71.2238 35.2277C71.2238 46.8346 71.2238 58.4322 71.2139 70.0391C71.2139 70.7089 71.2139 71.3787 71.2139 72.1035C72.9835 72.1586 74.6645 72.1677 76.3161 71.8007C81.9 70.5712 85.7045 66.6901 85.7045 62.1115C85.7241 49.7707 85.7143 37.4115 85.7143 25.0614Z" fill="url(#paint3_linear_1_230)"/>
<path d="M47.3744 47.7704C47.3744 48.954 47.3744 50.0734 47.3744 51.202C47.3744 52.4774 47.3744 53.7527 47.3744 55.0189C47.3744 55.7805 46.9615 56.1842 46.1554 56.1842C43.9336 56.1934 41.7119 56.1934 39.4901 56.1842C38.7528 56.1842 38.3399 55.753 38.3399 55.0281C38.3399 52.7526 38.3399 50.4771 38.3399 48.2016C38.3399 48.0732 38.3399 47.9356 38.3399 47.7704C38.1531 47.7704 38.0155 47.7704 37.8681 47.7704C35.4694 47.7704 33.0608 47.7704 30.6621 47.7704C29.7085 47.7704 29.3153 47.4126 29.3153 46.5226C29.3153 44.5499 29.3153 42.5771 29.3153 40.6044C29.3153 39.7053 29.6987 39.3474 30.6523 39.3474C33.0412 39.3474 35.43 39.3474 37.8189 39.3474C37.9762 39.3474 38.1237 39.3474 38.3301 39.3474C38.3301 39.2006 38.3301 39.0813 38.3301 38.9621C38.3301 36.6866 38.3301 34.4111 38.3301 32.1356C38.3301 31.2915 38.7332 30.9244 39.6376 30.9244C41.7512 30.9244 43.8648 30.9244 45.9784 30.9244C46.9713 30.9244 47.3547 31.2731 47.3547 32.2182C47.3646 34.4753 47.3547 36.7233 47.3547 38.9804C47.3547 39.0905 47.3547 39.2006 47.3547 39.3566C47.512 39.3566 47.6497 39.3566 47.7775 39.3566C50.2155 39.3566 52.6535 39.3566 55.0915 39.3658C55.9861 39.3658 56.3695 39.7328 56.3695 40.5677C56.3695 42.5496 56.3695 44.5315 56.3695 46.5134C56.3695 47.4217 55.996 47.7704 55.0424 47.7704C52.6142 47.7704 50.186 47.7704 47.7676 47.7796C47.6693 47.7704 47.5513 47.7704 47.3744 47.7704Z" fill="url(#paint4_linear_1_230)"/>
</g>
<defs>
<linearGradient id="paint0_linear_1_230" x1="14.2069" y1="43.5509" x2="71.2211" y2="43.5509" gradientUnits="userSpaceOnUse">
<stop stop-color="#B0F4FF"/>
<stop offset="1" stop-color="#69DCFC"/>
</linearGradient>
<linearGradient id="paint1_linear_1_230" x1="4.08716e-06" y1="43.5599" x2="14.2069" y2="43.5599" gradientUnits="userSpaceOnUse">
<stop stop-color="#6CBCFC"/>
<stop offset="1" stop-color="#458DFC"/>
</linearGradient>
<linearGradient id="paint2_linear_1_230" x1="22.4959" y1="7.99372" x2="62.244" y2="7.99372" gradientUnits="userSpaceOnUse">
<stop stop-color="#6CBCFC"/>
<stop offset="1" stop-color="#458DFC"/>
</linearGradient>
<linearGradient id="paint3_linear_1_230" x1="71.2163" y1="43.5543" x2="85.7151" y2="43.5543" gradientUnits="userSpaceOnUse">
<stop stop-color="#6CBCFC"/>
<stop offset="1" stop-color="#458DFC"/>
</linearGradient>
<linearGradient id="paint4_linear_1_230" x1="29.3213" y1="43.5635" x2="56.3892" y2="43.5635" gradientUnits="userSpaceOnUse">
<stop stop-color="#6888C8"/>
<stop offset="1" stop-color="#458DFC"/>
</linearGradient>
<clipPath id="clip0_1_230">
<rect width="85.7143" height="71.1549" fill="white" transform="translate(0 0.985229)"/>
</clipPath>
</defs>
</svg>
