<svg width="67" height="96" viewBox="0 0 67 96" fill="none" xmlns="http://www.w3.org/2000/svg">
<path d="M66.6 5.29552V91.6907C66.6 94.0748 64.7521 96.001 62.465 96.001H4.13505C1.8479 95.9852 0 94.059 0 91.6907V5.29552C0 2.91144 1.8479 0.985229 4.13505 0.985229H62.4801C64.7521 0.985229 66.6 2.91144 66.6 5.29552Z" fill="url(#paint0_linear_1_240)"/>
<path d="M62.3574 8.93189V88.0386C62.3574 90.2215 60.7337 91.9852 58.724 91.9852H7.47081C5.46114 91.9708 3.83743 90.2071 3.83743 88.0386V8.93189C3.83743 6.74894 5.46114 4.98523 7.47081 4.98523H58.7373C60.7337 4.98523 62.3574 6.74894 62.3574 8.93189Z" fill="url(#paint1_linear_1_240)"/>
<path d="M25.7797 19.2369V23.1682C25.7797 23.4524 25.5676 23.6735 25.295 23.6735H20.6753C20.4026 23.6735 20.1906 23.8945 20.1906 24.1787V28.9942C20.1906 29.2784 19.9785 29.4995 19.7059 29.4995H15.9343C15.6617 29.4995 15.4497 29.2784 15.4497 28.9942V24.1787C15.4497 23.8945 15.2376 23.6735 14.965 23.6735H10.3604C10.0877 23.6735 9.87567 23.4524 9.87567 23.1682V19.2369C9.87567 18.9527 10.0877 18.7316 10.3604 18.7316H14.9801C15.2527 18.7316 15.4648 18.5106 15.4648 18.2264V13.4109C15.4648 13.1267 15.6769 12.9056 15.9495 12.9056H19.721C19.9937 12.9056 20.2057 13.1267 20.2057 13.4109V18.2264C20.2057 18.5106 20.4178 18.7316 20.6904 18.7316H25.295C25.5676 18.7316 25.7797 18.9527 25.7797 19.2369Z" fill="url(#paint2_linear_1_240)"/>
<path opacity="0.5" d="M56.1943 40.662H10.4058C10.1029 40.662 9.86053 40.4094 9.86053 40.0936V38.2779C9.86053 37.9621 10.1029 37.7095 10.4058 37.7095H56.1943C56.4972 37.7095 56.7395 37.9621 56.7395 38.2779V40.0936C56.7244 40.4094 56.4972 40.662 56.1943 40.662Z" fill="url(#paint3_linear_1_240)"/>
<path d="M56.1942 18.0369H33.4742C33.1713 18.0369 32.9289 17.7843 32.9289 17.4685V15.6686C32.9289 15.3528 33.1713 15.1002 33.4742 15.1002H56.1942C56.4972 15.1002 56.7395 15.3528 56.7395 15.6686V17.4843C56.7244 17.7843 56.4972 18.0369 56.1942 18.0369Z" fill="url(#paint4_linear_1_240)"/>
<path opacity="0.5" d="M49.4691 25.7101H33.4742C33.1713 25.7101 32.9289 25.4575 32.9289 25.1418V23.3261C32.9289 23.0103 33.1713 22.7577 33.4742 22.7577H49.4691C49.772 22.7577 50.0144 23.0103 50.0144 23.3261V25.1418C49.9992 25.4575 49.772 25.7101 49.4691 25.7101Z" fill="url(#paint5_linear_1_240)"/>
<path opacity="0.5" d="M56.1943 49.2825H10.4058C10.1029 49.2825 9.86053 49.0299 9.86053 48.7142V46.8985C9.86053 46.5827 10.1029 46.3301 10.4058 46.3301H56.1943C56.4972 46.3301 56.7395 46.5827 56.7395 46.8985V48.7142C56.7244 49.0299 56.4972 49.2825 56.1943 49.2825Z" fill="url(#paint6_linear_1_240)"/>
<path opacity="0.5" d="M56.1943 57.9032H10.4058C10.1029 57.9032 9.86053 57.6505 9.86053 57.3348V55.5191C9.86053 55.2033 10.1029 54.9507 10.4058 54.9507H56.1943C56.4972 54.9507 56.7395 55.2033 56.7395 55.5191V57.3506C56.7244 57.6505 56.4972 57.9032 56.1943 57.9032Z" fill="url(#paint7_linear_1_240)"/>
<path opacity="0.5" d="M56.1943 66.5395H10.4058C10.1029 66.5395 9.86053 66.2869 9.86053 65.9711V64.1554C9.86053 63.8397 10.1029 63.587 10.4058 63.587H56.1943C56.4972 63.587 56.7395 63.8397 56.7395 64.1554V65.9711C56.7244 66.2869 56.4972 66.5395 56.1943 66.5395Z" fill="url(#paint8_linear_1_240)"/>
<path opacity="0.5" d="M56.1943 75.1601H10.4058C10.1029 75.1601 9.86053 74.9075 9.86053 74.5917V72.776C9.86053 72.4603 10.1029 72.2076 10.4058 72.2076H56.1943C56.4972 72.2076 56.7395 72.4603 56.7395 72.776V74.5917C56.7244 74.9075 56.4972 75.1601 56.1943 75.1601Z" fill="url(#paint9_linear_1_240)"/>
<path opacity="0.5" d="M56.1943 83.7807H10.4058C10.1029 83.7807 9.86053 83.528 9.86053 83.2123V81.3966C9.86053 81.0808 10.1029 80.8282 10.4058 80.8282H56.1943C56.4972 80.8282 56.7395 81.0808 56.7395 81.3966V83.2123C56.7244 83.528 56.4972 83.7807 56.1943 83.7807Z" fill="url(#paint10_linear_1_240)"/>
<path opacity="0.1" d="M66.6 5.29552V91.6907C66.6 94.0748 64.7521 96.001 62.465 96.001H4.13505C1.8479 95.9852 0 94.059 0 91.6907V90.1908C35.5796 74.8759 52.1501 16.1423 55.8913 0.985229H62.465C64.7521 0.985229 66.6 2.91144 66.6 5.29552Z" fill="#1A6FB5" fill-opacity="0.4"/>
<defs>
<linearGradient id="paint0_linear_1_240" x1="91.1376" y1="126.985" x2="-10.8668" y2="-0.423049" gradientUnits="userSpaceOnUse">
<stop offset="0.3061" stop-color="#6888C8"/>
<stop offset="1" stop-color="#69B8FC"/>
</linearGradient>
<linearGradient id="paint1_linear_1_240" x1="8.27353" y1="8.03087" x2="58.2692" y2="77.0713" gradientUnits="userSpaceOnUse">
<stop offset="0.3061" stop-color="white"/>
<stop offset="1" stop-color="white"/>
</linearGradient>
<linearGradient id="paint2_linear_1_240" x1="9.59347" y1="10.4853" x2="24.8687" y2="34.4204" gradientUnits="userSpaceOnUse">
<stop stop-color="#B0F4FF"/>
<stop offset="0.368525" stop-color="#80E4FD"/>
<stop offset="1" stop-color="#6CDDFC"/>
</linearGradient>
<linearGradient id="paint3_linear_1_240" x1="9.87223" y1="39.1925" x2="56.7313" y2="39.1925" gradientUnits="userSpaceOnUse">
<stop stop-color="#6CBCFC"/>
<stop offset="1" stop-color="#458DFC"/>
</linearGradient>
<linearGradient id="paint4_linear_1_240" x1="32.9293" y1="16.5696" x2="56.7313" y2="16.5696" gradientUnits="userSpaceOnUse">
<stop stop-color="#6CBCFC"/>
<stop offset="1" stop-color="#458DFC"/>
</linearGradient>
<linearGradient id="paint5_linear_1_240" x1="32.9293" y1="24.2468" x2="50.0064" y2="24.2468" gradientUnits="userSpaceOnUse">
<stop stop-color="#6CBCFC"/>
<stop offset="1" stop-color="#458DFC"/>
</linearGradient>
<linearGradient id="paint6_linear_1_240" x1="9.87223" y1="47.8169" x2="56.7313" y2="47.8169" gradientUnits="userSpaceOnUse">
<stop stop-color="#6CBCFC"/>
<stop offset="1" stop-color="#458DFC"/>
</linearGradient>
<linearGradient id="paint7_linear_1_240" x1="9.87223" y1="56.4414" x2="56.7313" y2="56.4414" gradientUnits="userSpaceOnUse">
<stop stop-color="#6CBCFC"/>
<stop offset="1" stop-color="#458DFC"/>
</linearGradient>
<linearGradient id="paint8_linear_1_240" x1="9.87223" y1="65.0659" x2="56.7313" y2="65.0659" gradientUnits="userSpaceOnUse">
<stop stop-color="#6CBCFC"/>
<stop offset="1" stop-color="#458DFC"/>
</linearGradient>
<linearGradient id="paint9_linear_1_240" x1="9.87223" y1="73.6904" x2="56.7313" y2="73.6904" gradientUnits="userSpaceOnUse">
<stop stop-color="#6CBCFC"/>
<stop offset="1" stop-color="#458DFC"/>
</linearGradient>
<linearGradient id="paint10_linear_1_240" x1="9.87223" y1="82.3149" x2="56.7313" y2="82.3149" gradientUnits="userSpaceOnUse">
<stop stop-color="#6CBCFC"/>
<stop offset="1" stop-color="#458DFC"/>
</linearGradient>
</defs>
</svg>
